<svg width="32" height="32" viewBox="0 0 32 32" fill="none" xmlns="http://www.w3.org/2000/svg">
<path d="M28.3997 20.3997C28.6981 20.697 28.9348 21.0503 29.0963 21.4393C29.2578 21.8282 29.3409 22.2452 29.3409 22.6664C29.3409 23.0876 29.2578 23.5046 29.0963 23.8936C28.9348 24.2825 28.6981 24.6358 28.3997 24.9331L24.9331 28.3997C24.6358 28.6981 24.2825 28.9348 23.8936 29.0963C23.5046 29.2578 23.0876 29.3409 22.6664 29.3409C22.2452 29.3409 21.8282 29.2578 21.4393 29.0963C21.0503 28.9348 20.697 28.6981 20.3997 28.3997L3.59974 11.5997C3.00048 10.9976 2.66406 10.1826 2.66406 9.33307C2.66406 8.48353 3.00048 7.66857 3.59974 7.0664L7.0664 3.59974C7.66857 3.00048 8.48353 2.66406 9.33307 2.66406C10.1826 2.66406 10.9976 3.00048 11.5997 3.59974L28.3997 20.3997Z" stroke="#0F0F0F" stroke-linecap="round" stroke-linejoin="round"/>
<path d="M19.3359 16.6667L22.0026 14" stroke="#0F0F0F" stroke-linecap="round" stroke-linejoin="round"/>
<path d="M15.3359 12.6667L18.0026 10" stroke="#0F0F0F" stroke-linecap="round" stroke-linejoin="round"/>
<path d="M11.3359 8.66667L14.0026 6" stroke="#0F0F0F" stroke-linecap="round" stroke-linejoin="round"/>
<path d="M23.3359 20.6667L26.0026 18" stroke="#0F0F0F" stroke-linecap="round" stroke-linejoin="round"/>
</svg>