<svg width="24" height="24" viewBox="0 0 24 24" fill="none" xmlns="http://www.w3.org/2000/svg">
<path d="M21.4678 2.74065C18.4598 3.98625 5.56296 9.32841 1.99944 10.7845C-0.390483 11.7171 1.00848 12.5914 1.00848 12.5914C1.00848 12.5914 3.04848 13.2908 4.79712 13.8154C6.54576 14.3401 7.4784 13.7571 7.4784 13.7571L15.697 8.21961C18.6113 6.23793 17.9119 7.86993 17.2126 8.56929C15.697 10.0849 13.1906 12.4746 11.0923 14.3982C10.1597 15.2142 10.626 15.9138 11.034 16.2634C12.5496 17.5458 16.6879 20.1687 16.9212 20.3437C18.1526 21.2154 20.5747 22.4703 20.9431 19.819L22.4004 10.6678C22.8667 7.57857 23.333 4.72233 23.3914 3.90633C23.5661 1.92465 21.4678 2.74065 21.4678 2.74065Z" fill="white"/>
</svg>