<svg width="24" height="24" viewBox="0 0 24 24" fill="none" xmlns="http://www.w3.org/2000/svg">
<path d="M23.4985 6.18725C23.2225 5.14794 22.4093 4.32945 21.3766 4.05162C19.505 3.54687 12 3.54688 12 3.54688C12 3.54688 4.49498 3.54687 2.62336 4.05162C1.59075 4.32941 0.777516 5.14794 0.501516 6.18725C0 8.07106 0 12.0014 0 12.0014C0 12.0014 0 15.9318 0.501516 17.8156C0.777516 18.8549 1.59075 19.6734 2.62336 19.9513C4.49498 20.456 12 20.456 12 20.456C12 20.456 19.505 20.456 21.3766 19.9513C22.4093 19.6734 23.2225 18.8549 23.4985 17.8156C24 15.9318 24 12.0014 24 12.0014C24 12.0014 24 8.07106 23.4985 6.18725Z" fill="white"/>
<path d="M9.54688 15.5667L15.8196 11.9983L9.54688 8.42969V15.5667Z" fill="#0F0F0F"/>
</svg>
